<?xml version="1.0" encoding="utf-8"?>
<!-- Generator: Adobe Illustrator 16.2.0, SVG Export Plug-In . SVG Version: 6.00 Build 0)  -->
<!DOCTYPE svg PUBLIC "-//W3C//DTD SVG 1.1//EN" "http://www.w3.org/Graphics/SVG/1.1/DTD/svg11.dtd">
<svg version="1.1" id="Capa_1" xmlns="http://www.w3.org/2000/svg" xmlns:xlink="http://www.w3.org/1999/xlink" x="0px" y="0px"
	 width="28.348px" height="23.645px" viewBox="868.264 202.209 28.348 23.645"
	 enable-background="new 868.264 202.209 28.348 23.645" xml:space="preserve">
<g>
	<polygon points="884.961,217.701 880.309,214.21 877.979,216.54 877.979,221.192 891.944,221.192 891.944,219.33 887.291,216.54 	
		"/>
	<circle cx="890.206" cy="213.626" r="1.746"/>
	<polygon points="876.057,214.678 876.057,210.003 880.732,210.003 880.732,206.885 876.057,206.885 876.057,202.209 
		872.938,202.209 872.938,206.885 868.264,206.885 868.264,210.003 872.938,210.003 872.938,214.678 	"/>
	<path d="M894.281,207.228h-10.876v2.33h10.876v13.966h-18.626v-6.144h-2.33v6.144c0,1.278,1.044,2.33,2.33,2.33h18.626
		c1.278,0,2.33-1.044,2.33-2.33v-13.973C896.604,208.272,895.56,207.228,894.281,207.228z"/>
</g>
</svg>
