<?xml version="1.0" encoding="utf-8"?>
<!-- Generator: Adobe Illustrator 16.2.0, SVG Export Plug-In . SVG Version: 6.00 Build 0)  -->
<!DOCTYPE svg PUBLIC "-//W3C//DTD SVG 1.1//EN" "http://www.w3.org/Graphics/SVG/1.1/DTD/svg11.dtd">
<svg version="1.1" id="Capa_1" xmlns="http://www.w3.org/2000/svg" xmlns:xlink="http://www.w3.org/1999/xlink" x="0px" y="0px"
	 width="14.173px" height="17.781px" viewBox="952.914 151.11 14.173 17.781" enable-background="new 952.914 151.11 14.173 17.781"
	 xml:space="preserve">
<title>Delete 2.4</title>
<desc>Created with Sketch.</desc>
<g>
	<g>
		<path fill="#C10000" d="M965.025,154.307l-0.478,12.887c-0.008,0.221-0.202,0.408-0.425,0.408h-8.246
			c-0.222,0-0.417-0.188-0.425-0.408l-0.477-12.887c-0.013-0.355-0.313-0.633-0.668-0.62s-0.633,0.312-0.62,0.668l0.477,12.886
			c0.034,0.913,0.798,1.649,1.713,1.649h8.246c0.915,0,1.679-0.735,1.713-1.649l0.478-12.886c0.013-0.356-0.265-0.655-0.62-0.668
			S965.039,153.952,965.025,154.307z"/>
		<path fill="#C10000" d="M959.484,156.908v8.762c0,0.285,0.231,0.516,0.516,0.516s0.516-0.231,0.516-0.516v-8.762
			c0-0.285-0.231-0.515-0.516-0.515S959.484,156.623,959.484,156.908z"/>
		<path fill="#C10000" d="M956.65,156.923l0.257,8.762c0.008,0.285,0.246,0.508,0.531,0.5c0.284-0.008,0.508-0.246,0.5-0.53
			l-0.258-8.762c-0.008-0.284-0.246-0.508-0.53-0.5C956.866,156.401,956.642,156.639,956.65,156.923z"/>
		<path fill="#C10000" d="M962.319,156.893l-0.258,8.762c-0.008,0.285,0.216,0.522,0.5,0.53c0.285,0.008,0.522-0.215,0.53-0.5
			l0.258-8.762c0.009-0.284-0.215-0.522-0.5-0.53C962.565,156.384,962.328,156.608,962.319,156.893z"/>
		<path fill="#C10000" d="M953.558,154.589h12.885c0.355,0,0.645-0.289,0.645-0.645s-0.289-0.644-0.645-0.644h-12.885
			c-0.356,0-0.644,0.288-0.644,0.644S953.202,154.589,953.558,154.589z"/>
		<path fill="#C10000" d="M958.042,153.735l0.268-0.939c0.058-0.201,0.318-0.397,0.527-0.397h2.324c0.209,0,0.47,0.196,0.527,0.397
			l0.268,0.939l1.239-0.354l-0.269-0.939c-0.215-0.754-0.981-1.332-1.766-1.332h-2.324c-0.784,0-1.551,0.578-1.766,1.332
			l-0.268,0.939L958.042,153.735z"/>
	</g>
</g>
</svg>
