<?xml version="1.0" encoding="utf-8"?>
<!-- Generator: Adobe Illustrator 16.2.0, SVG Export Plug-In . SVG Version: 6.00 Build 0)  -->
<!DOCTYPE svg PUBLIC "-//W3C//DTD SVG 1.1//EN" "http://www.w3.org/Graphics/SVG/1.1/DTD/svg11.dtd">
<svg version="1.1" id="Layer_1" xmlns="http://www.w3.org/2000/svg" xmlns:xlink="http://www.w3.org/1999/xlink" x="0px" y="0px"
	 width="46px" height="24px" viewBox="0 0 46 24" enable-background="new 0 0 46 24" xml:space="preserve">
<g>
	<path fill-rule="evenodd" clip-rule="evenodd" fill="#041931" d="M12.22,16.57c0,0.61-0.5,1.06-1.04,1.06h-4.4
		c-0.6,0-1.04-0.5-1.04-1.06c0-0.6,0.49-1.06,1.04-1.06h4.35C11.72,15.51,12.22,16.02,12.22,16.57z M0,7.48
		c0-0.61,0.49-1.06,1.04-1.06h10.09c0.59,0,1.04,0.5,1.04,1.06c0,0.6-0.5,1.06-1.04,1.06H1.04C0.45,8.54,0,8.03,0,7.48z
		 M12.22,12.03c0,0.6-0.5,1.06-1.04,1.06H4.45c-0.59,0-1.04-0.51-1.04-1.06c0-0.61,0.5-1.07,1.04-1.07h6.68
		C11.72,10.96,12.22,11.42,12.22,12.03z M41.25,17.79c0.45,0.4,0.45,1.06,0.1,1.51c-0.2,0.25-0.49,0.35-0.79,0.35
		c-0.25,0-0.5-0.1-0.69-0.25l-7.13-6.52l-2.32,1.82c-0.2,0.15-0.4,0.21-0.64,0.21c-0.25,0-0.45-0.06-0.65-0.21l-2.22-1.77
		l-7.17,6.47c-0.2,0.2-0.45,0.25-0.7,0.25c-0.29,0-0.59-0.1-0.79-0.35c-0.39-0.45-0.34-1.11,0.1-1.51l6.88-6.17L18.4,6.21
		c-0.45-0.35-0.54-1.06-0.2-1.51c0.35-0.46,1.04-0.56,1.49-0.2l7.81,6.21l2.28,1.82l10.09-7.98c0.44-0.36,1.13-0.31,1.48,0.2
		c0.35,0.45,0.3,1.16-0.2,1.52l-6.72,5.3L41.25,17.79z M43.92,19.15c0,1.52-1.23,2.78-2.72,2.78H28.29H18.4
		c-1.48,0-2.72-1.26-2.72-2.78V4.9c0-1.51,1.24-2.78,2.72-2.78h22.8c1.49,0,2.72,1.27,2.72,2.78V19.15z M41.2,0H18.4
		c-2.67,0-4.8,2.22-4.8,4.9v14.2c0,2.73,2.18,4.9,4.8,4.9h22.8c2.67,0,4.8-2.22,4.8-4.9V4.9C46,2.22,43.87,0,41.2,0z"/>
</g>
</svg>
