<?xml version="1.0" encoding="utf-8"?>
<!-- Generator: Adobe Illustrator 23.0.6, SVG Export Plug-In . SVG Version: 6.00 Build 0)  -->
<svg version="1.1" id="Capa_1" xmlns="http://www.w3.org/2000/svg" xmlns:xlink="http://www.w3.org/1999/xlink" x="0px" y="0px"
	 viewBox="0 0 202.9 53" style="enable-background:new 0 0 202.9 53;" xml:space="preserve">
<style type="text/css">
	.st0{fill-rule:evenodd;clip-rule:evenodd;fill:#1A2535;}
	.st1{fill:#1A2535;}
	.st2{fill:#0085B2;}
</style>
<g>
	<g>
		<g>
			<path class="st0" d="M62.6,29.6c0,0.4,0.2,0.7,0.7,0.7h4.3c0.5,0,0.7-0.2,0.7-0.7l1.3-11.8l3.4,11.9c0,0.1,0.1,0.2,0.2,0.4
				c0.1,0.1,0.3,0.2,0.4,0.2h4c0.1,0,0.3-0.1,0.4-0.2c0.1-0.1,0.2-0.3,0.2-0.4l3.4-11.9L83,29.6c0,0.4,0.3,0.7,0.7,0.7h4.3
				c0.5,0,0.7-0.2,0.7-0.6v-0.1l-1.1-10.7c-0.4-3.5-0.7-7.1-1.1-10.7c0-0.2-0.1-0.4-0.3-0.5c-0.1-0.1-0.3-0.2-0.5-0.2h-5.2
				c-0.4,0-0.6,0.2-0.8,0.6L75.7,22L71.5,8.1c-0.1-0.4-0.3-0.6-0.7-0.6h-5.3c-0.2,0-0.4,0.1-0.5,0.2c-0.1,0.1-0.2,0.3-0.2,0.5
				L62.6,29.6z"/>
			<path class="st0" d="M93.1,29.6c0,0.4,0.2,0.7,0.7,0.7h4.6c0.5,0,0.8-0.2,0.8-0.7V8.3c0-0.2-0.1-0.4-0.3-0.5
				c-0.2-0.1-0.4-0.2-0.5-0.2h-4.6c-0.2,0-0.4,0.1-0.5,0.2c-0.1,0.1-0.2,0.3-0.2,0.5V29.6z"/>
			<path class="st0" d="M129.8,8.1c-1.1-0.3-2.2-0.5-3.4-0.5c-1.1,0-2.1,0.1-3.1,0.4c-1,0.3-1.9,0.7-2.8,1.1
				c-0.9,0.5-1.7,1.1-2.4,1.8c-0.7,0.7-1.4,1.5-1.9,2.3c-0.5,0.9-0.9,1.8-1.2,2.7c-0.3,1-0.4,2-0.4,3c0,1.1,0.1,2.1,0.4,3
				c0.3,1,0.7,1.9,1.2,2.7c0.5,0.8,1.2,1.6,1.9,2.3c0.7,0.7,1.6,1.3,2.4,1.8c0.9,0.5,1.8,0.9,2.8,1.1c1,0.3,2,0.4,3.1,0.4
				c1.2,0,2.4-0.2,3.5-0.5c1.1-0.3,2.1-0.8,3.1-1.4c0.2-0.1,0.3-0.2,0.4-0.4c0.1-0.1,0.1-0.3,0-0.5l-2.6-3.6
				c-0.1-0.2-0.3-0.2-0.4-0.3c-0.1,0-0.3,0-0.5,0.1c-0.5,0.4-1.1,0.7-1.7,0.9c-0.6,0.2-1.3,0.3-1.9,0.3c-0.8,0-1.6-0.2-2.3-0.5
				c-0.7-0.3-1.3-0.7-1.8-1.3c-0.5-0.5-0.9-1.2-1.2-1.9c-0.3-0.7-0.4-1.5-0.4-2.4c0-0.8,0.1-1.6,0.4-2.4c0.3-0.7,0.7-1.4,1.2-1.9
				c0.5-0.5,1.1-1,1.8-1.3c0.7-0.3,1.5-0.5,2.3-0.5c0.7,0,1.3,0.1,1.9,0.3c0.6,0.2,1.2,0.5,1.7,0.9c0.2,0.1,0.3,0.2,0.5,0.1
				c0.1,0,0.2-0.1,0.4-0.3l2.6-3.5c0.1-0.2,0.1-0.4,0.1-0.5c-0.1-0.1-0.2-0.3-0.4-0.4C131.9,8.9,130.9,8.4,129.8,8.1z"/>
			<path class="st0" d="M149.1,21.2h-4.7c0.2-0.5,0.4-1.1,0.6-1.7c0.2-0.6,0.4-1.2,0.6-1.8s0.4-1.2,0.6-1.8c0.2-0.6,0.4-1.1,0.6-1.7
				L149.1,21.2z M135.7,29.7c-0.1,0.2-0.1,0.4,0.1,0.5c0.1,0.1,0.3,0.2,0.5,0.2h4.5c0.4,0,0.6-0.2,0.8-0.6c0.2-0.5,0.4-1.1,0.6-1.6
				c0.2-0.5,0.4-1.1,0.6-1.6h8.1c0.2,0.5,0.4,1.1,0.6,1.6c0.2,0.5,0.4,1.1,0.6,1.6c0.1,0.2,0.2,0.4,0.3,0.5c0.1,0.1,0.3,0.1,0.5,0.1
				h4.4c0.3,0,0.4-0.1,0.6-0.2c0.1-0.1,0.1-0.3,0.1-0.5l-8-20.7L149.4,8c-0.1-0.1-0.1-0.2-0.3-0.3c-0.1-0.1-0.3-0.2-0.4-0.2h-3.9
				c-0.1,0-0.2,0-0.3,0.1c-0.1,0-0.2,0.1-0.3,0.1c-0.1,0.1-0.1,0.1-0.2,0.2C144,8,144,8.1,144,8.2L135.7,29.7z"/>
			<path class="st0" d="M164.6,22.4c-0.1-0.1-0.2-0.1-0.3-0.1c-0.1,0-0.3,0.1-0.5,0.2l-2.6,2.5c-0.2,0.2-0.3,0.4-0.3,0.6
				c0,0.1,0.1,0.4,0.3,0.6c0,0,0,0,0,0c0,0,0,0,0,0c0,0,0,0,0,0l0,0l0,0.1c0.2,0.2,0.4,0.4,0.7,0.7c0.3,0.3,0.6,0.6,1,0.9
				c1,0.7,2,1.3,3.1,1.7c1.1,0.4,2.3,0.6,3.5,0.6c1.2,0,2.4-0.2,3.5-0.5s2-0.8,2.8-1.5c0.8-0.6,1.4-1.4,1.9-2.3s0.7-1.9,0.7-3
				c0-1-0.2-1.9-0.6-2.7c-0.4-0.7-0.9-1.4-1.5-1.9c-0.7-0.5-1.4-1-2.3-1.4c-0.9-0.4-1.9-0.8-2.9-1.1c-0.6-0.2-1-0.3-1.4-0.5
				c-0.4-0.1-0.8-0.3-1.1-0.5c-0.3-0.2-0.5-0.3-0.6-0.6c-0.1-0.2-0.2-0.5-0.2-0.7c0-0.3,0.1-0.5,0.2-0.7c0.1-0.2,0.3-0.3,0.5-0.5
				c0.2-0.1,0.5-0.2,0.8-0.3c0.3-0.1,0.6-0.1,1-0.1c0.3,0,0.6,0.1,0.9,0.2c0.3,0.1,0.6,0.2,0.9,0.4c0.3,0.2,0.6,0.3,0.8,0.5
				c0.3,0.2,0.5,0.4,0.7,0.5l0.1,0.1c0.1,0.1,0.3,0.2,0.4,0.3c0.1,0.1,0.3,0.1,0.4,0.1c0.2,0,0.4-0.1,0.5-0.3l2.3-2.5
				c0.1-0.1,0.2-0.3,0.3-0.4c0.1-0.1,0.1-0.3,0.1-0.4c0-0.2-0.1-0.3-0.2-0.5c-0.1-0.2-0.3-0.4-0.6-0.6c-0.2-0.2-0.5-0.4-0.8-0.7
				c-0.3-0.2-0.6-0.4-1-0.7c-0.8-0.5-1.7-0.8-2.5-1c-0.9-0.2-1.7-0.3-2.7-0.3c-1.2,0-2.4,0.2-3.4,0.5c-1,0.3-1.9,0.7-2.6,1.3
				c-0.7,0.6-1.3,1.2-1.7,2c-0.4,0.8-0.6,1.6-0.6,2.6c0,0.9,0.1,1.7,0.4,2.4c0.3,0.7,0.8,1.4,1.4,2s1.4,1.1,2.3,1.6
				c0.9,0.5,2,1,3.2,1.4l1,0.3c0.4,0.1,0.7,0.3,1.1,0.5c0.3,0.2,0.6,0.4,0.9,0.7c0.2,0.3,0.4,0.5,0.4,0.8c0,0.3,0,0.5-0.1,0.8
				c-0.1,0.3-0.2,0.5-0.4,0.7c-0.2,0.2-0.5,0.3-0.8,0.5c-0.4,0.1-0.8,0.2-1.3,0.2c-0.6,0-1.1-0.1-1.6-0.3c-0.5-0.2-1-0.5-1.5-0.8
				c-0.4-0.2-0.7-0.5-0.9-0.7l-0.7-0.6C164.9,22.5,164.7,22.4,164.6,22.4z"/>
			<path class="st0" d="M194.1,21.2h-4.7c0.2-0.5,0.4-1.1,0.6-1.7c0.2-0.6,0.4-1.2,0.6-1.8c0.2-0.6,0.4-1.2,0.6-1.8
				c0.2-0.6,0.4-1.1,0.6-1.7L194.1,21.2z M180.7,29.7c-0.1,0.2-0.1,0.4,0.1,0.5c0.1,0.1,0.3,0.2,0.5,0.2h4.5c0.4,0,0.6-0.2,0.8-0.6
				c0.2-0.5,0.4-1.1,0.6-1.6c0.2-0.5,0.4-1.1,0.6-1.6h8.1c0.2,0.5,0.4,1.1,0.6,1.6c0.2,0.5,0.4,1.1,0.6,1.6c0.1,0.2,0.2,0.4,0.3,0.5
				c0.1,0.1,0.3,0.1,0.5,0.1h4.4c0.3,0,0.4-0.1,0.6-0.2c0.1-0.1,0.1-0.3,0.1-0.5l-8-20.7L194.4,8c-0.1-0.1-0.2-0.2-0.3-0.3
				c-0.1-0.1-0.3-0.2-0.4-0.2h-3.9c-0.1,0-0.2,0-0.3,0.1c-0.1,0-0.2,0.1-0.3,0.1c-0.1,0.1-0.2,0.1-0.2,0.2C189,8,189,8.1,189,8.2
				L180.7,29.7z"/>
		</g>
		<g>
			<path class="st0" d="M62.3,37.9c-0.1,0-0.1,0-0.2,0c0,0-0.1,0.1-0.1,0.1v0.4c0,0.1,0,0.1,0.1,0.1s0.1,0,0.2,0h2.1v6.1
				c0,0.1,0,0.1,0.1,0.2c0,0,0.1,0.1,0.2,0.1h0.5c0.1,0,0.1,0,0.2-0.1c0-0.1,0.1-0.1,0.1-0.2v-6.1h2.1c0.1,0,0.1,0,0.2,0
				c0,0,0.1-0.1,0.1-0.1V38c0,0,0-0.1-0.1-0.1c-0.1,0-0.1,0-0.2,0H62.3z"/>
			<path class="st0" d="M69.6,38.1c0-0.1,0-0.1-0.1-0.2c0,0-0.1-0.1-0.1-0.1h-0.5c-0.1,0-0.1,0-0.1,0.1c0,0-0.1,0.1-0.1,0.2v4.3
				c0,0.4,0.1,0.8,0.2,1.2c0.2,0.4,0.4,0.7,0.6,1c0.3,0.3,0.6,0.5,1,0.7c0.3,0.2,0.8,0.2,1.2,0.2c0.4,0,0.8-0.1,1.2-0.2
				c0.4-0.1,0.7-0.4,1-0.6c0.3-0.3,0.5-0.6,0.7-1c0.2-0.4,0.2-0.8,0.2-1.3v-4.3c0-0.1,0-0.1-0.1-0.2c-0.1,0-0.1-0.1-0.2-0.1h-0.5
				c-0.1,0-0.1,0-0.2,0.1c0,0-0.1,0.1-0.1,0.2v4.3c0,0.3,0,0.6-0.1,0.9c-0.1,0.3-0.2,0.5-0.4,0.8c-0.2,0.2-0.4,0.4-0.6,0.5
				c-0.3,0.1-0.6,0.2-0.9,0.2c-0.3,0-0.6-0.1-0.9-0.2c-0.3-0.1-0.5-0.3-0.7-0.5s-0.3-0.5-0.4-0.7c-0.1-0.3-0.1-0.6-0.1-0.9V38.1z"/>
			<path class="st0" d="M83.3,40.7c-0.1,0.2-0.2,0.3-0.3,0.5c-0.1,0.2-0.3,0.3-0.4,0.3c-0.2,0.1-0.3,0.1-0.5,0.1h-1.7v-3h1.7
				c0.2,0,0.4,0,0.5,0.1c0.2,0.1,0.3,0.2,0.4,0.3c0.1,0.1,0.2,0.3,0.3,0.5c0.1,0.2,0.1,0.4,0.1,0.6C83.4,40.3,83.4,40.5,83.3,40.7z
				 M79.4,44.9c0,0.2,0.1,0.2,0.2,0.2h0.5c0.1,0,0.2-0.1,0.2-0.2v-2.5h1.8c0.3,0,0.6-0.1,0.9-0.2c0.3-0.1,0.5-0.3,0.7-0.5
				c0.2-0.2,0.4-0.5,0.5-0.7c0.1-0.3,0.2-0.5,0.2-0.9c0-0.3-0.1-0.6-0.2-0.9c-0.1-0.3-0.3-0.5-0.5-0.7c-0.2-0.2-0.5-0.4-0.7-0.5
				c-0.3-0.1-0.6-0.2-0.9-0.2h-2.5c-0.2,0-0.2,0.1-0.2,0.2V44.9z"/>
			<path class="st0" d="M88,38.1c-0.3,0.1-0.6,0.2-0.8,0.4c-0.3,0.2-0.5,0.4-0.7,0.6c-0.2,0.2-0.4,0.5-0.6,0.8
				c-0.2,0.3-0.3,0.6-0.4,0.9c-0.1,0.3-0.1,0.7-0.1,1c0,0.3,0,0.7,0.1,1s0.2,0.6,0.4,0.9c0.1,0.3,0.3,0.5,0.6,0.8
				c0.2,0.2,0.4,0.4,0.7,0.6c0.3,0.2,0.5,0.3,0.8,0.4c0.3,0.1,0.6,0.1,0.9,0.1s0.6,0,0.9-0.1c0.3-0.1,0.6-0.2,0.8-0.4
				c0.3-0.2,0.5-0.3,0.7-0.6c0.2-0.2,0.4-0.5,0.5-0.8c0.2-0.3,0.3-0.6,0.4-0.9c0.1-0.3,0.1-0.7,0.1-1c0-0.3-0.1-0.7-0.1-1
				c-0.1-0.3-0.2-0.6-0.4-0.9c-0.1-0.3-0.3-0.5-0.5-0.8c-0.2-0.2-0.5-0.4-0.7-0.6c-0.3-0.2-0.5-0.3-0.8-0.4
				c-0.3-0.1-0.6-0.1-0.9-0.1C88.7,37.9,88.3,38,88,38.1z M86.1,41.2c0.1-0.2,0.2-0.5,0.3-0.7c0.1-0.2,0.3-0.4,0.4-0.5
				c0.2-0.2,0.4-0.3,0.6-0.4c0.2-0.1,0.4-0.2,0.7-0.3c0.2-0.1,0.5-0.1,0.8-0.1c0.4,0,0.8,0.1,1.1,0.2c0.3,0.1,0.7,0.3,0.9,0.6
				c0.3,0.3,0.5,0.6,0.6,0.9c0.1,0.3,0.2,0.7,0.2,1.1c0,0.3,0,0.5-0.1,0.8c-0.1,0.2-0.2,0.5-0.3,0.7c-0.1,0.2-0.3,0.4-0.4,0.6
				c-0.2,0.2-0.4,0.3-0.6,0.4c-0.2,0.1-0.4,0.2-0.7,0.3c-0.3,0.1-0.5,0.1-0.8,0.1c-0.3,0-0.5,0-0.8-0.1c-0.2-0.1-0.5-0.2-0.7-0.3
				c-0.2-0.1-0.4-0.3-0.6-0.4c-0.2-0.2-0.3-0.4-0.4-0.6c-0.1-0.2-0.2-0.4-0.3-0.7C86.1,42.5,86,42.2,86,42
				C86,41.7,86.1,41.5,86.1,41.2z"/>
			<path class="st0" d="M98.3,40.7c-0.1,0.2-0.2,0.3-0.3,0.5c-0.1,0.2-0.3,0.3-0.4,0.3c-0.2,0.1-0.4,0.1-0.5,0.1h-2.1v-3H97
				c0.2,0,0.4,0,0.5,0.1c0.2,0.1,0.3,0.2,0.4,0.3c0.1,0.1,0.2,0.3,0.3,0.5c0.1,0.2,0.1,0.4,0.1,0.6C98.4,40.3,98.3,40.5,98.3,40.7z
				 M93.9,44.8c0,0.1,0.1,0.2,0.2,0.2h0.5c0.1,0,0.2-0.1,0.2-0.2v-2.4h0.8h0.6h0.4h0.2H97c0,0,0.1,0,0.1,0l1.2,2.5
				c0.1,0.1,0.1,0.2,0.2,0.2h0.6c0.1,0,0.2,0,0.2-0.1v-0.1L98,42.2c0.2-0.1,0.4-0.2,0.5-0.3c0.2-0.1,0.3-0.3,0.4-0.5
				c0.1-0.2,0.2-0.4,0.3-0.6c0.1-0.2,0.1-0.4,0.1-0.7c0-0.3-0.1-0.6-0.2-0.9c-0.1-0.3-0.3-0.5-0.5-0.7c-0.2-0.2-0.5-0.4-0.7-0.5
				c-0.3-0.1-0.6-0.2-0.9-0.2h-2.9c-0.2,0-0.2,0.1-0.2,0.2V44.8z"/>
			<path class="st0" d="M100.4,37.9c-0.1,0-0.1,0-0.2,0c0,0-0.1,0.1-0.1,0.1v0.4c0,0.1,0,0.1,0.1,0.1c0.1,0,0.1,0,0.2,0h2.1v6.1
				c0,0.1,0,0.1,0.1,0.2c0,0,0.1,0.1,0.2,0.1h0.5c0.1,0,0.1,0,0.2-0.1c0-0.1,0.1-0.1,0.1-0.2v-6.1h2.1c0.1,0,0.1,0,0.2,0
				c0,0,0.1-0.1,0.1-0.1V38c0,0,0-0.1-0.1-0.1c0,0-0.1,0-0.2,0H100.4z"/>
			<path class="st0" d="M109.8,39.8l1.3,3.4h-2.7L109.8,39.8z M107.7,44.7l0.3-0.8h3.5l0.6,1.4c0,0.1,0,0.1,0.1,0.1c0,0,0.1,0,0.2,0
				h0.5c0.1,0,0.2-0.1,0.2-0.2c0,0,0,0,0,0v-0.1c0,0,0,0,0,0l-2.8-7.1c0,0,0,0,0-0.1c0,0,0,0-0.1-0.1c0,0,0,0-0.1,0c0,0-0.1,0-0.1,0
				h-0.3c-0.1,0-0.1,0-0.1,0c0,0-0.1,0-0.1,0c0,0,0,0,0,0.1l0,0.1l-2.9,7.1c0,0,0,0,0,0c0,0,0,0,0,0v0c0,0.1,0.1,0.2,0.2,0.2h0.5
				c0.1,0,0.1,0,0.2,0c0,0,0.1-0.1,0.1-0.1C107.5,45.1,107.6,44.9,107.7,44.7z"/>
			<path class="st0" d="M115.2,44.7v-6.6c0-0.1,0-0.1,0-0.2c0,0-0.1-0.1-0.1-0.1h-0.4c-0.1,0-0.1,0-0.1,0.1s0,0.1,0,0.2v7.1
				c0,0.2,0.1,0.2,0.2,0.2h4.1c0.1,0,0.1,0,0.1,0c0,0,0.1-0.1,0.1-0.1v-0.4c0-0.1,0-0.1-0.1-0.1c-0.1,0-0.1-0.1-0.1-0.1H115.2z"/>
			<path class="st0" d="M122.9,45c0,0.1,0.1,0.2,0.2,0.2h0.5c0.2,0,0.2-0.1,0.2-0.2v-6.9c0-0.1,0-0.1-0.1-0.2c0,0-0.1-0.1-0.2-0.1
				h-0.5c-0.1,0-0.1,0-0.2,0.1s-0.1,0.1-0.1,0.2V45z"/>
			<path class="st0" d="M131.2,45.5c0.2,0,0.2-0.1,0.2-0.2v-7.2c0-0.1,0-0.1-0.1-0.2c-0.1,0-0.1-0.1-0.2-0.1h-0.5
				c-0.1,0-0.2,0.1-0.2,0.2v5.8l-4.2-5.8c-0.1-0.1-0.1-0.1-0.2-0.1h-0.7c-0.1,0-0.1,0-0.2,0.1c-0.1,0-0.1,0.1-0.1,0.2V45
				c0,0.1,0.1,0.2,0.2,0.2h0.5c0.1,0,0.2-0.1,0.2-0.2v-5.7l4.3,6.1c0.1,0.1,0.1,0.1,0.2,0.1H131.2z"/>
			<path class="st0" d="M136.8,44.8c0.1,0,0.1-0.1,0.2-0.2l2.2-5.2l0.6,5.5c0,0.1,0.1,0.2,0.2,0.2h0.5c0.1,0,0.2-0.1,0.2-0.2
				l-0.8-6.9c0-0.1,0-0.1-0.1-0.2c0,0-0.1-0.1-0.1-0.1H139c-0.1,0-0.1,0-0.1,0c0,0-0.1,0.1-0.1,0.1l-2.2,5.2l-2.1-5.2
				c-0.1-0.1-0.1-0.2-0.2-0.2h-0.8c-0.1,0-0.1,0-0.2,0.1c0,0-0.1,0.1-0.1,0.2l-0.8,6.9c0,0.1,0.1,0.2,0.2,0.2h0.5
				c0.1,0,0.2-0.1,0.2-0.2l0.6-5.5l2.2,5.2c0,0.1,0.1,0.2,0.2,0.2H136.8z"/>
			<path class="st0" d="M144.5,38.1c-0.3,0.1-0.6,0.2-0.9,0.4c-0.3,0.2-0.5,0.4-0.7,0.6c-0.2,0.2-0.4,0.5-0.6,0.8
				c-0.2,0.3-0.3,0.6-0.4,0.9c-0.1,0.3-0.1,0.7-0.1,1c0,0.3,0,0.7,0.1,1s0.2,0.6,0.4,0.9c0.1,0.3,0.3,0.5,0.6,0.8
				c0.2,0.2,0.4,0.4,0.7,0.6c0.3,0.2,0.5,0.3,0.8,0.4c0.3,0.1,0.6,0.1,0.9,0.1c0.3,0,0.6,0,1-0.1c0.3-0.1,0.6-0.2,0.8-0.4
				c0.3-0.2,0.5-0.3,0.7-0.6c0.2-0.2,0.4-0.5,0.6-0.8c0.2-0.3,0.3-0.6,0.4-0.9c0.1-0.3,0.1-0.7,0.1-1c0-0.3-0.1-0.7-0.1-1
				c-0.1-0.3-0.2-0.6-0.4-0.9c-0.1-0.3-0.3-0.5-0.6-0.8c-0.2-0.2-0.4-0.4-0.7-0.6c-0.3-0.2-0.5-0.3-0.8-0.4
				c-0.3-0.1-0.6-0.1-0.9-0.1C145.1,37.9,144.8,38,144.5,38.1z M142.6,41.2c0.1-0.2,0.2-0.5,0.3-0.7c0.1-0.2,0.3-0.4,0.5-0.5
				c0.2-0.2,0.4-0.3,0.6-0.4c0.2-0.1,0.4-0.2,0.7-0.3c0.2-0.1,0.5-0.1,0.8-0.1c0.4,0,0.8,0.1,1.1,0.2c0.4,0.1,0.7,0.3,0.9,0.6
				c0.3,0.3,0.5,0.6,0.6,0.9c0.1,0.3,0.2,0.7,0.2,1.1c0,0.3,0,0.5-0.1,0.8c-0.1,0.2-0.2,0.5-0.3,0.7c-0.1,0.2-0.3,0.4-0.4,0.6
				c-0.2,0.2-0.4,0.3-0.6,0.4c-0.2,0.1-0.4,0.2-0.7,0.3c-0.3,0.1-0.5,0.1-0.8,0.1c-0.3,0-0.5,0-0.8-0.1c-0.2-0.1-0.5-0.2-0.7-0.3
				c-0.2-0.1-0.4-0.3-0.6-0.4c-0.2-0.2-0.3-0.4-0.5-0.6c-0.1-0.2-0.2-0.4-0.3-0.7c-0.1-0.2-0.1-0.5-0.1-0.8
				C142.5,41.7,142.5,41.5,142.6,41.2z"/>
			<path class="st0" d="M154.4,40.7c-0.1,0.2-0.1,0.4-0.2,0.5c-0.1,0.1-0.2,0.2-0.3,0.3c-0.1,0.1-0.3,0.1-0.4,0.1h-2.2v-3h2.2
				c0.2,0,0.3,0,0.4,0.1c0.1,0.1,0.2,0.2,0.3,0.3c0.1,0.1,0.2,0.3,0.2,0.5c0.1,0.2,0.1,0.4,0.1,0.6
				C154.5,40.3,154.5,40.5,154.4,40.7z M153.8,42.4c0.1,0,0.3,0,0.4,0.1c0.1,0.1,0.3,0.1,0.3,0.2c0.1,0.1,0.2,0.2,0.2,0.4
				c0.1,0.1,0.1,0.3,0.1,0.4c0,0.2,0,0.3-0.1,0.4c-0.1,0.1-0.1,0.3-0.2,0.4c-0.1,0.1-0.2,0.2-0.3,0.3c-0.1,0.1-0.3,0.1-0.4,0.1h-2.5
				v-2.3H153.8z M155.4,39.3c-0.1-0.3-0.2-0.5-0.4-0.7c-0.2-0.2-0.4-0.4-0.6-0.5c-0.3-0.1-0.5-0.2-0.8-0.2h-2.9
				c-0.2,0-0.2,0.1-0.2,0.3v7.1c0,0.1,0,0.1,0.1,0.2c0.1,0,0.1,0,0.2,0h3.2c0.3,0,0.6,0,0.8-0.2c0.3-0.1,0.5-0.2,0.7-0.4
				c0.2-0.2,0.3-0.4,0.4-0.6c0.1-0.2,0.2-0.5,0.2-0.7c0-0.2,0-0.3-0.1-0.5c-0.1-0.2-0.1-0.3-0.2-0.4c-0.1-0.1-0.2-0.3-0.3-0.4
				c-0.1-0.1-0.3-0.2-0.4-0.3c0.2-0.2,0.3-0.5,0.4-0.8c0.1-0.3,0.2-0.6,0.2-1C155.5,39.9,155.4,39.6,155.4,39.3z"/>
			<path class="st0" d="M157.2,45c0,0.1,0.1,0.2,0.2,0.2h0.5c0.1,0,0.2-0.1,0.2-0.2v-6.9c0-0.1,0-0.1-0.1-0.2
				c-0.1,0-0.1-0.1-0.2-0.1h-0.5c-0.1,0-0.1,0-0.1,0.1c-0.1,0-0.1,0.1-0.1,0.2V45z"/>
			<path class="st0" d="M160.2,44.7v-6.6c0-0.1,0-0.1-0.1-0.2c0,0-0.1-0.1-0.1-0.1h-0.4c-0.1,0-0.1,0-0.1,0.1c0,0,0,0.1,0,0.2v7.1
				c0,0.2,0.1,0.2,0.2,0.2h4.1c0.1,0,0.1,0,0.2,0c0,0,0.1-0.1,0.1-0.1v-0.4c0-0.1,0-0.1-0.1-0.1c-0.1,0-0.1-0.1-0.2-0.1H160.2z"/>
			<path class="st0" d="M164.8,45c0,0.1,0.1,0.2,0.2,0.2h0.5c0.1,0,0.2-0.1,0.2-0.2v-6.9c0-0.1,0-0.1-0.1-0.2
				c-0.1,0-0.1-0.1-0.1-0.1h-0.5c-0.1,0-0.1,0-0.2,0.1c0,0-0.1,0.1-0.1,0.2V45z"/>
			<path class="st0" d="M170,39.8l1.3,3.4h-2.7L170,39.8z M167.9,44.7l0.3-0.8h3.5l0.5,1.4c0,0.1,0,0.1,0.1,0.1c0,0,0.1,0,0.2,0h0.5
				c0.1,0,0.2-0.1,0.2-0.2c0,0,0,0,0,0v-0.1c0,0,0,0,0,0l-2.8-7.1c0,0,0,0,0-0.1c0,0,0,0-0.1-0.1c0,0,0,0-0.1,0c0,0-0.1,0-0.1,0
				h-0.3c-0.1,0-0.1,0-0.1,0c0,0-0.1,0-0.1,0c0,0,0,0,0,0.1l0,0.1l-2.9,7.1c0,0,0,0,0,0c0,0,0,0,0,0v0c0,0.1,0.1,0.2,0.2,0.2h0.5
				c0.1,0,0.1,0,0.2,0c0,0,0.1-0.1,0.1-0.1C167.8,45.1,167.8,44.9,167.9,44.7z"/>
			<path class="st0" d="M179.1,40.7c-0.1,0.2-0.2,0.3-0.3,0.5c-0.1,0.2-0.3,0.3-0.4,0.3c-0.2,0.1-0.3,0.1-0.5,0.1h-2.1v-3h2.1
				c0.2,0,0.4,0,0.6,0.1c0.2,0.1,0.3,0.2,0.4,0.3c0.1,0.1,0.2,0.3,0.3,0.5c0.1,0.2,0.1,0.4,0.1,0.6
				C179.2,40.3,179.2,40.5,179.1,40.7z M174.8,44.8c0,0.1,0.1,0.2,0.2,0.2h0.5c0.1,0,0.2-0.1,0.2-0.2v-2.4h0.8h0.6h0.4h0.2h0.1
				c0,0,0.1,0,0.1,0l1.2,2.5c0.1,0.1,0.1,0.2,0.2,0.2h0.6c0.1,0,0.2,0,0.2-0.1v-0.1l-1.3-2.7c0.2-0.1,0.4-0.2,0.5-0.3
				c0.2-0.1,0.3-0.3,0.4-0.5c0.1-0.2,0.2-0.4,0.3-0.6c0.1-0.2,0.1-0.4,0.1-0.7c0-0.3-0.1-0.6-0.2-0.9c-0.1-0.3-0.3-0.5-0.5-0.7
				c-0.2-0.2-0.4-0.4-0.7-0.5c-0.3-0.1-0.6-0.2-0.9-0.2H175c-0.1,0-0.2,0.1-0.2,0.2V44.8z"/>
			<path class="st0" d="M181.6,45c0,0.1,0.1,0.2,0.2,0.2h0.5c0.1,0,0.2-0.1,0.2-0.2v-6.9c0-0.1,0-0.1-0.1-0.2
				c-0.1,0-0.1-0.1-0.2-0.1h-0.5c-0.1,0-0.1,0-0.2,0.1c0,0-0.1,0.1-0.1,0.2V45z"/>
			<path class="st0" d="M186.5,38.1c-0.3,0.1-0.6,0.2-0.8,0.4c-0.3,0.2-0.5,0.4-0.7,0.6c-0.2,0.2-0.4,0.5-0.6,0.8
				c-0.2,0.3-0.3,0.6-0.4,0.9c-0.1,0.3-0.1,0.7-0.1,1c0,0.3,0,0.7,0.1,1c0.1,0.3,0.2,0.6,0.4,0.9c0.1,0.3,0.3,0.5,0.5,0.8
				c0.2,0.2,0.5,0.4,0.7,0.6c0.3,0.2,0.5,0.3,0.8,0.4c0.3,0.1,0.6,0.1,0.9,0.1c0.3,0,0.6,0,1-0.1c0.3-0.1,0.6-0.2,0.8-0.4
				c0.3-0.2,0.5-0.3,0.7-0.6c0.2-0.2,0.4-0.5,0.6-0.8c0.2-0.3,0.3-0.6,0.4-0.9s0.1-0.7,0.1-1c0-0.3,0-0.7-0.1-1
				c-0.1-0.3-0.2-0.6-0.4-0.9c-0.2-0.3-0.3-0.5-0.6-0.8c-0.2-0.2-0.4-0.4-0.7-0.6c-0.3-0.2-0.5-0.3-0.8-0.4c-0.3-0.1-0.6-0.1-1-0.1
				C187.1,37.9,186.8,38,186.5,38.1z M184.5,41.2c0.1-0.2,0.2-0.5,0.3-0.7c0.1-0.2,0.3-0.4,0.4-0.5c0.2-0.2,0.4-0.3,0.6-0.4
				c0.2-0.1,0.4-0.2,0.7-0.3c0.2-0.1,0.5-0.1,0.8-0.1c0.4,0,0.8,0.1,1.1,0.2c0.3,0.1,0.6,0.3,0.9,0.6c0.3,0.3,0.5,0.6,0.6,0.9
				c0.1,0.3,0.2,0.7,0.2,1.1c0,0.3,0,0.5-0.1,0.8c-0.1,0.2-0.2,0.5-0.3,0.7c-0.1,0.2-0.3,0.4-0.4,0.6c-0.2,0.2-0.4,0.3-0.6,0.4
				s-0.4,0.2-0.7,0.3c-0.3,0.1-0.5,0.1-0.8,0.1c-0.3,0-0.5,0-0.8-0.1c-0.2-0.1-0.5-0.2-0.7-0.3c-0.2-0.1-0.4-0.3-0.6-0.4
				c-0.2-0.2-0.3-0.4-0.4-0.6c-0.1-0.2-0.2-0.4-0.3-0.7c-0.1-0.2-0.1-0.5-0.1-0.8C184.4,41.7,184.5,41.5,184.5,41.2z"/>
		</g>
	</g>
	<g>
		<path class="st1" d="M47.6,26.7l-11.3-13c0-0.1-0.1,0-0.2,0L25.3,32c0,0-0.1,0.1-0.1,0L3.4,27.4c-0.1,0-0.1,0-0.1,0.1v16.2
			c0,0,0,0.1,0.1,0.1L25.3,53h0.2l3.5-1.5c0.1,0,0.1-0.1,0.1-0.2V35.1c0-0.1,0-0.1,0.1-0.2l8.8-3.6c0.1,0,0.2,0,0.2,0.1v16
			c0,0.1,0.1,0.1,0.2,0.1l9.4-3.9l0.1-0.1L47.6,26.7C47.6,26.8,47.7,26.8,47.6,26.7C47.6,26.8,47.6,26.8,47.6,26.7z"/>
		<path class="st2" d="M53.3,24.9l-17-19.7c-0.1-0.1-0.1-0.1-0.2-0.1h-2.5c-0.1,0-0.2-0.1-0.2-0.2V1.4c0-0.1,0.1-0.2,0.2-0.2h0.4
			c0.1,0,0.2-0.1,0.2-0.1v-1c0.1-0.1,0-0.2-0.1-0.2h-5.5c-0.1,0-0.1,0.1-0.1,0.2v1c0,0.1,0.1,0.1,0.1,0.1h0.5c0.1,0,0.1,0.1,0.1,0.2
			V5c0,0.1-0.1,0.2-0.1,0.2H12.5c-0.1,0-0.2,0.1-0.2,0.1L0,22.6v0.2v0.3c0,0.1,0.1,0.2,0.2,0.2l23.4,4.9c0.1,0,0.2,0,0.2-0.1
			L35.5,8.3c0.1-0.1,0.3-0.1,0.4,0l14.6,16.9c0.1,0.1,0.1,0.1,0.2,0.1h2.4C53.4,25.3,53.5,25.1,53.3,24.9z"/>
	</g>
</g>
</svg>
