<?xml version="1.0" encoding="utf-8"?>
<!-- Generator: Adobe Illustrator 16.2.0, SVG Export Plug-In . SVG Version: 6.00 Build 0)  -->
<!DOCTYPE svg PUBLIC "-//W3C//DTD SVG 1.1//EN" "http://www.w3.org/Graphics/SVG/1.1/DTD/svg11.dtd">
<svg version="1.1" id="Layer_1" xmlns="http://www.w3.org/2000/svg" xmlns:xlink="http://www.w3.org/1999/xlink" x="0px" y="0px"
	 width="18px" height="22.998px" viewBox="0 0 18 22.998" enable-background="new 0 0 18 22.998" xml:space="preserve">
<path fill-rule="evenodd" clip-rule="evenodd" fill="#192533" d="M9,12.17c-2.1,0-3.8-1.62-3.8-3.61c0-2,1.7-3.61,3.8-3.61
	s3.8,1.61,3.8,3.61C12.8,10.55,11.1,12.17,9,12.17z M9,0C4.03,0,0,3.83,0,8.56c0,5.27,7.91,13.95,7.91,13.95
	c0.6,0.65,1.58,0.65,2.18,0c0,0,7.91-8.68,7.91-13.95C18,3.83,13.97,0,9,0z"/>
</svg>
