<?xml version="1.0" encoding="utf-8"?>
<!-- Generator: Adobe Illustrator 16.2.0, SVG Export Plug-In . SVG Version: 6.00 Build 0)  -->
<!DOCTYPE svg PUBLIC "-//W3C//DTD SVG 1.1//EN" "http://www.w3.org/Graphics/SVG/1.1/DTD/svg11.dtd">
<svg version="1.1" id="Layer_1" xmlns="http://www.w3.org/2000/svg" xmlns:xlink="http://www.w3.org/1999/xlink" x="0px" y="0px"
	 width="24.004px" height="24.001px" viewBox="0 0 24.004 24.001" enable-background="new 0 0 24.004 24.001" xml:space="preserve">
<g>
	<path fill="#041931" d="M4.771,0.473l4.02,4.04c0.55,0.47,0.55,1.34,0,1.89l-2.21,2.22c1.58,2.53,2.37,3.71,3.86,5.22
		c1.42,1.42,2.92,2.29,4.97,3.47l2.21-2.21c0.55-0.47,1.41-0.47,1.89,0l4.02,4.11c0.63,0.56,0.63,1.5,0,2.06
		c-0.48,0.55-0.95,1.03-1.42,1.5c-6.39,6.48-27.35-14.47-20.89-20.87l1.42-1.43C3.271-0.158,4.222-0.158,4.771,0.473z"/>
</g>
</svg>
